<svg xmlns="http://www.w3.org/2000/svg" viewBox="330 305 215 270" role="img" aria-labelledby="title desc">
  <title id="title">Strateo favicon</title>
  <desc id="desc">Strateo favicon using the canonical S letterform from the approved wordmark.</desc>
  <rect x="330" y="305" width="215" height="270" rx="0" fill="#FFFFFF"></rect>
  <path d="M 405.624 329.638 C 384.448 334.179, 368.348 345.764, 360.523 362.093 C 355.938 371.660, 354.696 378.309, 355.231 390.424 C 355.751 402.182, 357.956 408.881, 364.421 418.340 C 374.944 433.736, 390.282 442.215, 433.500 456.526 C 463.064 466.316, 477.360 472.328, 484.500 477.972 C 495.545 486.703, 500.564 498.034, 499.804 512.517 C 499.430 519.640, 498.816 521.988, 495.655 528.384 C 491.375 537.044, 486.434 541.854, 477.412 546.143 C 461.774 553.577, 439.171 553.872, 416.454 546.938 C 410.025 544.976, 399.025 539.933, 391.270 535.391 L 388.040 533.500 375.020 546.486 C 367.859 553.628, 362 559.846, 362 560.305 C 362 560.764, 386.188 560.971, 415.750 560.766 L 469.500 560.392 479.239 557.757 C 492.629 554.133, 502.063 549.012, 510.037 541.037 C 521.486 529.588, 527 515.871, 527 498.836 C 527 472.970, 514.579 454.852, 487.528 441.264 C 482.398 438.687, 465.057 432.292, 447.028 426.329 C 429.688 420.593, 411.419 413.928, 406.432 411.516 C 394.756 405.872, 388.033 399.843, 383.781 391.206 C 380.768 385.086, 380.500 383.763, 380.500 375 C 380.500 366.230, 380.767 364.917, 383.792 358.771 C 389.391 347.398, 400.210 340.248, 416.205 337.351 C 434.561 334.027, 460.752 339.677, 478.980 350.892 C 481.757 352.602, 484.368 354, 484.780 354 C 485.749 354, 510 329.707, 510 328.736 C 510 328.331, 488.063 328.037, 461.250 328.082 C 422.306 328.147, 411.117 328.460, 405.624 329.638 M 503.094 349.406 L 492.723 359.812 503.362 370.386 L 514 380.960 514 359.980 C 514 348.441, 513.879 339, 513.732 339 C 513.585 339, 508.798 343.683, 503.094 349.406 M 356 526.979 C 356 539.640, 356.292 550, 356.650 550 C 357.007 550, 359.595 547.601, 362.400 544.669 C 365.205 541.736, 370.113 536.606, 373.307 533.269 L 379.114 527.200 367.557 515.579 L 356 503.957 356 526.979" fill="#0E4F5A" fill-rule="evenodd"></path>
</svg>