<svg role="img" aria-labelledby="title desc" xmlns="http://www.w3.org/2000/svg" width="1774" height="887" viewBox="0 0 1774 887" version="1.1"><title id="title">Strateo wordmark</title><desc id="desc">Vector trace of the approved Strateo wordmark PNG in petroleum blue.</desc>
&#x9;<path d="M 405.624 329.638 C 384.448 334.179, 368.348 345.764, 360.523 362.093 C 355.938 371.660, 354.696 378.309, 355.231 390.424 C 355.751 402.182, 357.956 408.881, 364.421 418.340 C 374.944 433.736, 390.282 442.215, 433.500 456.526 C 463.064 466.316, 477.360 472.328, 484.500 477.972 C 495.545 486.703, 500.564 498.034, 499.804 512.517 C 499.430 519.640, 498.816 521.988, 495.655 528.384 C 491.375 537.044, 486.434 541.854, 477.412 546.143 C 461.774 553.577, 439.171 553.872, 416.454 546.938 C 410.025 544.976, 399.025 539.933, 391.270 535.391 L 388.040 533.500 375.020 546.486 C 367.859 553.628, 362 559.846, 362 560.305 C 362 560.764, 386.188 560.971, 415.750 560.766 L 469.500 560.392 479.239 557.757 C 492.629 554.133, 502.063 549.012, 510.037 541.037 C 521.486 529.588, 527 515.871, 527 498.836 C 527 472.970, 514.579 454.852, 487.528 441.264 C 482.398 438.687, 465.057 432.292, 447.028 426.329 C 429.688 420.593, 411.419 413.928, 406.432 411.516 C 394.756 405.872, 388.033 399.843, 383.781 391.206 C 380.768 385.086, 380.500 383.763, 380.500 375 C 380.500 366.230, 380.767 364.917, 383.792 358.771 C 389.391 347.398, 400.210 340.248, 416.205 337.351 C 434.561 334.027, 460.752 339.677, 478.980 350.892 C 481.757 352.602, 484.368 354, 484.780 354 C 485.749 354, 510 329.707, 510 328.736 C 510 328.331, 488.063 328.037, 461.250 328.082 C 422.306 328.147, 411.117 328.460, 405.624 329.638 M 503.094 349.406 L 492.723 359.812 503.362 370.386 L 514 380.960 514 359.980 C 514 348.441, 513.879 339, 513.732 339 C 513.585 339, 508.798 343.683, 503.094 349.406 M 580.909 382.648 C 549.760 411.548, 545 416.046, 545 416.571 C 545 416.807, 551.750 417, 560 417 L 575 417 575 473.318 C 575 536.018, 574.959 535.578, 581.775 545.847 C 588.858 556.519, 600.645 561.530, 616.887 560.774 C 632.235 560.059, 643.317 555.333, 654.750 544.627 C 660.122 539.596, 660.642 538.564, 659.065 536.070 C 658.318 534.891, 657.530 535.121, 654.565 537.382 C 647.615 542.683, 640.246 545.333, 632.456 545.333 C 623.503 545.333, 617.107 542.511, 612.900 536.704 C 607.081 528.670, 607 527.741, 607 468.818 L 607 415 630.500 415 L 654 415 654 411 L 654 407 630.500 407 L 607 407 607 383.500 C 607 370.575, 606.622 360, 606.159 360 C 605.697 360, 594.334 370.191, 580.909 382.648 M 1014.346 369.250 C 1008.879 374.337, 995.540 386.749, 984.703 396.830 C 973.866 406.912, 965 415.574, 965 416.080 C 965 416.598, 971.331 417, 979.469 417 L 993.938 417 994.219 475.303 L 994.500 533.607 998.278 541.249 C 1004.873 554.590, 1013.877 559.958, 1031 560.756 C 1046.907 561.497, 1061.285 556.186, 1073.178 545.175 C 1079.094 539.698, 1079.675 538.615, 1078.065 536.070 C 1077.315 534.886, 1076.589 535.075, 1073.830 537.176 C 1061.753 546.372, 1046.416 548.042, 1036.500 541.243 C 1033.829 539.411, 1031.504 536.507, 1029.500 532.500 L 1026.500 526.500 1026.218 470.750 L 1025.936 415 1049.468 415 L 1073 415 1073 411 L 1073 407 1049.500 407 L 1026 407 1026 383.500 C 1026 370.575, 1025.614 360, 1025.143 360 C 1024.672 360, 1019.813 364.163, 1014.346 369.250 M 868.867 405.031 C 854.639 406.623, 841.305 410.987, 828.250 418.323 L 821 422.398 821 435.199 C 821 442.240, 821.337 447.990, 821.750 447.978 C 822.163 447.967, 824.300 445.441, 826.500 442.366 C 831.889 434.833, 841.419 425.210, 847.395 421.266 C 856.627 415.172, 862.276 413.560, 874.500 413.528 C 884.565 413.502, 885.987 413.739, 891.224 416.311 C 898.110 419.692, 903.224 425.384, 906.149 432.921 C 907.950 437.561, 908.391 441.206, 908.771 454.588 L 909.227 470.676 890.154 471.314 C 879.663 471.665, 866.225 472.669, 860.290 473.545 C 833.749 477.464, 816.074 487.948, 807.852 504.648 C 804.723 511.004, 804.500 512.126, 804.505 521.479 C 804.510 530.265, 804.843 532.211, 807.208 537.268 C 808.737 540.537, 812.302 545.432, 815.435 548.565 C 824.382 557.513, 834.598 561, 851.861 561 C 869.793 561, 885.087 555.299, 900.412 542.901 L 909 535.954 909 546.977 L 909 558 934 558 C 947.750 558, 958.998 557.663, 958.996 557.250 C 958.994 556.837, 954.944 553.918, 949.996 550.762 L 941 545.025 941 497.172 C 941 452.448, 940.868 448.804, 938.982 441.428 C 934.406 423.536, 922.408 411.819, 903.825 407.094 C 894.858 404.814, 879.112 403.884, 868.867 405.031 M 1159.679 405.022 C 1110.104 411.031, 1078.642 460.513, 1094 508.315 C 1097.929 520.542, 1102.940 528.804, 1112 537.989 C 1127.667 553.872, 1145.483 561.020, 1169.315 560.983 C 1186.164 560.956, 1198.401 557.745, 1211.720 549.855 C 1217.637 546.349, 1229.375 535.520, 1232.494 530.690 C 1234.112 528.184, 1234.145 527.717, 1232.799 526.371 C 1231.453 525.024, 1230.597 525.384, 1224.895 529.690 C 1204.886 544.800, 1177.951 546.925, 1155.506 535.165 C 1137.734 525.853, 1125.897 506.543, 1124.296 484.250 L 1123.703 476 1183.489 476 L 1243.276 476 1242.603 468.577 C 1241.648 458.038, 1239.593 450.751, 1234.835 441.034 C 1226.735 424.493, 1210.600 412.008, 1191 407.117 C 1181.721 404.801, 1168.689 403.929, 1159.679 405.022 M 769.638 406.585 C 752.823 410.656, 738.786 422.083, 729.750 439.059 L 726 446.103 726 426.552 L 726 407 703 407 C 690.350 407, 680.013 407.337, 680.028 407.750 C 680.043 408.163, 683.418 410.951, 687.528 413.946 L 695 419.391 695 482.598 L 695 545.804 687.516 551.152 C 683.400 554.093, 680.025 556.837, 680.016 557.250 C 680.007 557.663, 693.500 558, 710 558 C 729.108 558, 740 557.641, 740 557.011 C 740 556.467, 736.850 553.731, 733 550.931 L 726 545.840 726 510.551 C 726 470.210, 726.861 462.162, 732.440 450.337 C 742.262 429.517, 762.619 424.024, 789.750 434.872 L 795 436.971 795 421.592 C 795 408.492, 794.766 406.124, 793.418 405.607 C 790.580 404.518, 775.640 405.133, 769.638 406.585 M 1326 407.369 C 1305.004 412.246, 1288.770 422.243, 1277.451 437.266 C 1266.403 451.928, 1261.620 466.061, 1261.636 484 C 1261.648 497.577, 1263.469 505.791, 1269.063 517.500 C 1276.481 533.025, 1288.500 544.730, 1305.500 552.985 C 1317.449 558.788, 1326.717 561.038, 1341.500 561.725 C 1376.283 563.342, 1406.770 546.380, 1421.381 517.283 C 1425.669 508.742, 1426.035 509, 1409.634 509 L 1395.268 509 1393.031 515.250 C 1384.036 540.387, 1367.120 554, 1344.879 554 C 1335.419 554, 1327.104 551.504, 1319.292 546.318 C 1287.036 524.908, 1282.955 456.205, 1312.201 426.959 C 1326.173 412.987, 1346.422 409.229, 1363.651 417.411 C 1379.936 425.145, 1391.099 440.760, 1395.445 461.885 C 1397.380 471.287, 1398.317 484.057, 1397.506 489.955 L 1396.812 495 1376.406 495 L 1356 495 1356 498.500 L 1356 502 1391.455 502 L 1426.909 502 1427.705 498.250 C 1429.087 491.732, 1428.437 473.018, 1426.567 465.500 C 1424.097 455.572, 1417.805 443.265, 1411.144 435.334 C 1400.561 422.733, 1388.591 414.820, 1372 409.454 C 1364.440 407.009, 1361.730 406.671, 1347.500 406.398 C 1336.999 406.197, 1329.610 406.531, 1326 407.369 M 1161.232 412.998 C 1149.748 415.430, 1137.293 425.870, 1131.263 438.118 C 1127.906 444.937, 1124.019 459.203, 1124.007 464.750 L 1124 468 1167.500 468 L 1211 468 1211 462.958 C 1211 449.298, 1204.584 431.871, 1196.488 423.541 C 1187.913 414.718, 1173.485 410.404, 1161.232 412.998 M 870.500 480.480 C 855.871 483.197, 846.141 488.554, 840.939 496.757 C 837.123 502.775, 836.012 506.928, 836.006 515.212 C 835.991 533.168, 846.864 543.831, 866.179 544.802 C 880.410 545.517, 892.317 541.047, 903.565 530.766 L 909 525.799 909 502.400 L 909 479 893.250 479.090 C 884.587 479.140, 874.350 479.765, 870.500 480.480 M 356 526.979 C 356 539.640, 356.292 550, 356.650 550 C 357.007 550, 359.595 547.601, 362.400 544.669 C 365.205 541.736, 370.113 536.606, 373.307 533.269 L 379.114 527.200 367.557 515.579 L 356 503.957 356 526.979" stroke="none" fill="#0E4F5A" fill-rule="evenodd"></path>
</svg>